# AST/ASF file generated using VICON BodyLanguage
# -----------------------------------------------
:version 1.10
:name VICON
:units
  mass 1.0
  length 0.45
  angle deg
:documentation
   .ast/.asf automatically generated from VICON data using
   VICON BodyBuilder and BodyLanguage model FoxedUp or BRILLIANT.MOD
:root
   order TX TY TZ RX RY RZ
   axis XYZ
   position 0 0 0  
   orientation 0 0 0 
:bonedata
  begin
     id 1 
     name lhipjoint
     direction 0.702568 -0.596508 0.388042 
     length 2.56661 
     axis 0 0 0  XYZ
  end
  begin
     id 2 
     name lfemur
     direction 0.34202 -0.939693 0  
     length 6.58374  
     axis 0 0 20  XYZ
    dof rx ry rz
    limits (-160.0 20.0)
           (-70.0 70.0)
           (-60.0 70.0)
  end
  begin
     id 3 
     name ltibia
     direction 0.34202 -0.939693 0   
     length 6.62538   
     axis 0 0 20   XYZ
    dof rx
    limits (-10.0 170.0)
  end
  begin
     id 4 
     name lfoot
     direction 0.10455 -0.287249 0.952133   
     length 2.26699   
     axis -90 7.62852e-016 20   XYZ
    dof rx rz
    limits (-45.0 90.0)
           (-70.0 20.0)
  end
  begin
     id 5 
     name ltoes
     direction 1.53572e-011 -4.22322e-011 1   
     length 1.12949   
     axis -90 7.62852e-016 20   XYZ
    dof rx
    limits (-90.0 20.0)
  end
  begin
     id 6 
     name rhipjoint
     direction -0.728055 -0.574632 0.373811   
     length 2.66432  
     axis 0 0 0  XYZ 
  end
  begin
     id 7 
     name rfemur
     direction -0.34202 -0.939693 0   
     length 6.66732   
     axis 0 0 -20   XYZ
    dof rx ry rz
    limits (-160.0 20.0)
           (-70.0 70.0)
           (-70.0 60.0)
  end
  begin
     id 8 
     name rtibia
     direction -0.34202 -0.939693 0   
     length 6.59288   
     axis 0 0 -20   XYZ
    dof rx
    limits (-10.0 170.0)
 end
 begin
     id 9 
     name rfoot
     direction -0.119193 -0.327479 0.93731   
     length 2.38061  
     axis -90 -7.62852e-016 -20   XYZ
    dof rx rz
    limits (-45.0 90.0)
           (-20.0 70.0)
  end
  begin
     id 10 
     name rtoes
     direction -1.53547e-011 -4.21827e-011 1   
     length 1.17899   
     axis -90 -7.62852e-016 -20   XYZ
    dof rx
    limits (-90.0 20.0)
  end
  begin
     id 11 
     name lowerback
     direction -0.000416114 0.999912 -0.0132284   
     length 2.12109   
     axis 0 0 0   XYZ
    dof rx ry rz
    limits (-20.0 45.0)
           (-30.0 30.0)
           (-30.0 30.0)
  end
  begin
     id 12 
     name upperback
     direction -0.00136371 0.99809 0.0617608   
     length 2.10067   
     axis 0 0 0   XYZ
    dof rx ry rz
    limits (-20.0 45.0)
           (-30.0 30.0)
           (-30.0 30.0)
  end
  begin
     id 13 
     name thorax
     direction -3.43026e-005 0.997776 0.0666515   
     length 2.10618   
     axis 0 0 0   XYZ
    dof rx ry rz
    limits (-20.0 45.0)
           (-30.0 30.0)
           (-30.0 30.0)
  end
  begin
     id 14 
     name lowerneck
     direction 0.0398646 0.998418 0.0396592   
     length 1.83817   
     axis 0 0 0   XYZ
    dof rx ry rz
    limits (-20.0 45.0)
           (-30.0 30.0)
           (-30.0 30.0)
  end
  begin
     id 15 
     name upperneck
     direction -0.0367268 0.961527 -0.272244   
     length 1.81975   
     axis 0 0 0   XYZ
    dof rx ry rz
    limits (-20.0 45.0)
           (-30.0 30.0)
           (-30.0 30.0)
  end
  begin
     id 16
     name head
     direction -0.0182665 0.99536 -0.0944669  
     length 1.86026  
     axis 0 0 0   XYZ
    dof rx ry rz
    limits (-20.0 45.0)
           (-30.0 30.0)
           (-30.0 30.0)
  end
  begin
     id 17 
     name lclavicle
     direction 0.924239 0.361045 0.124212  
     length 3.26878  
     axis 0 0 0   XYZ
    dof ry rz
    limits (-20.0 10.0)
           (0.0 20.0)
  end
  begin
     id 18 
     name lhumerus
     direction 1 -4.48968e-011 -2.56583e-027   
     length 4.58538   
     axis 180 -30 -90   XYZ
    dof rx ry rz
    limits (-60.0 90.0)
           (-90.0 90.0)
           (-90.0 90.0)
  end
  begin
     id 19
     name lradius
     direction 1 -4.4898e-011 -5.50375e-027   
     length 2.68935   
     axis 180 -30 -90   XYZ
    dof rx
    limits (-10.0 170.0)
  end
  begin
     id 20
     name lwrist
     direction 1 -4.48939e-011 -1.48955e-026   
     length 1.34468   
     axis 9.0955e-015 90 90   XYZ
    dof ry
    limits (-180.0 0.0)
 end
  begin
     id 21 
     name lhand
     direction 1 -4.48936e-011 -2.97907e-026   
     length 0.585058   
     axis 1.90115e-014 90 90   XYZ
    dof rx rz
    limits (-90.0 90.0)
           (-45.0 45.0)
  end
  begin
     id 22 
     name lfingers
     direction 1 -4.49082e-011 -5.96235e-026   
     length 0.471689   
     axis 3.80223e-014 90 90   XYZ
    dof rx
    limits (0.0 90.0)
  end
  begin
     id 23
     name lthumb
     direction 0.707107 -6.3489e-011 0.707107   
     length 0.677253   
     axis -90 45 -3.84942e-014   XYZ
    dof rx rz
    limits (-45.0 45.0)
           (-45.0 45.0)
  end
  begin
     id 24 
     name rclavicle
     direction -0.923098 0.371783 0.0983239   
     length 3.19656  
     axis 0 0 0   XYZ 
    dof ry rz
    limits (-10.0 20.0)
           (-20.0 0.0)
  end
  begin
     id 25 
     name rhumerus
     direction -1 -4.48976e-011 -2.5492e-027  
     length 4.4745   
     axis 180 30 90   XYZ
    dof rx ry rz
    limits (-90.0 60.0)
           (-90.0 90.0)
           (-90.0 90.0)
  end
  begin
     id 26 
     name rradius
     direction -1 -4.48941e-011 -4.36555e-027   
     length 2.93896   
     axis 180 30 90   XYZ
    dof rx
    limits (-10.0 170.0)
  end
  begin
     id 27 
     name rwrist
     direction -1 -4.49044e-011 -1.49032e-026   
     length 1.46948   
     axis 9.0955e-015 -90 -90   XYZ
    dof ry
    limits (-180.0 0.0)
  end
  begin
     id 28
     name rhand
     direction -1 -4.48826e-011 -2.97749e-026   
     length 0.405092   
     axis 1.90115e-014 -90 -90   XYZ
    dof rx rz
    limits (-90.0 90.0)
           (-45.0 45.0)
  end
  begin
     id 29
     name rfingers
     direction -1 -4.49209e-011 -5.96602e-026   
     length 0.326596   
     axis 3.80223e-014 -90 -90   XYZ
    dof rx
    limits (0.0 90.0)
  end
  begin
     id 30
     name rthumb
     direction -0.707107 -6.34776e-011 0.707107   
     length 0.468928   
     axis -90 -45 3.84942e-014   XYZ
    dof rx rz
    limits (-45.0 45.0)
           (-45.0 45.0)
  end
:hierarchy
  begin
    root lhipjoint rhipjoint lowerback
    lhipjoint lfemur
    lfemur ltibia
    ltibia lfoot
    lfoot ltoes
    rhipjoint rfemur
    rfemur rtibia
    rtibia rfoot
    rfoot rtoes
    lowerback upperback
    upperback thorax
    thorax lowerneck lclavicle rclavicle
    lowerneck upperneck
    upperneck head
    lclavicle lhumerus
    lhumerus lradius
    lradius lwrist
    lwrist lhand lthumb
    lhand lfingers
    rclavicle rhumerus
    rhumerus rradius
    rradius rwrist
    rwrist rhand rthumb
    rhand rfingers
  end

#!OML:ASF H:\Punching\Project 1\Capture day 1\Session 1\female.ASF
:FULLY-SPECIFIED
:DEGREES
318
root 0.0358167 14.3089 -2.72927 20.5739 7.77012 5.99672
lowerback -5.39169 -2.83349 -3.90901
upperback -8.05415 -3.65731 1.5662
thorax -5.01872 -1.56795 3.77093
lowerneck -15.1407 3.71951 9.47563
upperneck 30.7978 5.25193 -7.95275
head 13.3517 2.39802 -3.94272
rclavicle 1.15047e-014 3.81667e-014
rhumerus 1.36324 15.3291 -63.5821
rradius 136.1
rwrist -22.7397
rhand -28.9102 8.28346
rfingers 7.12502
rthumb -2.26503 -21.6843
lclavicle 1.15047e-014 3.81667e-014
lhumerus -5.66043 -29.7509 78.5678
lradius 138.672
lwrist -3.94788
lhand -30.237 3.26849
lfingers 7.12502
lthumb -3.54628 33.2187
rfemur -67.0011 -11.3678 16.7759
rtibia 57.2747
rfoot -13.0098 -18.09
rtoes -4.76524
lfemur -2.3146 -14.5157 -25.6794
ltibia 22.6205
lfoot -44.2509 36.0248
ltoes 0.532696
319
root 0.00389107 14.2752 -2.64775 20.5024 7.28993 5.95796
lowerback -5.60874 -2.99871 -3.93599
upperback -8.21732 -3.86908 1.67042
thorax -5.04389 -1.66721 3.88421
lowerneck -15.0401 4.03006 9.68775
upperneck 31.0046 5.77628 -8.27695
head 13.4998 2.61413 -4.03403
rclavicle -3.65515e-014 1.51076e-014
rhumerus 0.977898 15.1825 -63.0679
rradius 136.12
rwrist -22.7679
rhand -28.8009 8.01265
rfingers 7.12502
rthumb -2.15946 -21.9562
lclavicle -3.65515e-014 1.51076e-014
lhumerus -5.44056 -29.4777 78.6392
lradius 138.573
lwrist -4.16947
lhand -30.1495 3.10305
lfingers 7.12502
lthumb -3.46182 33.0547
rfemur -67.1532 -11.1019 17.1105
rtibia 58.013
rfoot -13.6933 -18.6483
rtoes -4.15812
lfemur -1.69371 -14.387 -25.7642
ltibia 22.396
lfoot -44.6195 36.1729
ltoes 0.0995597
320
root -0.0295712 14.242 -2.56296 20.3967 6.80914 5.90194
lowerback -5.80859 -3.1527 -3.91793
upperback -8.38282 -4.06747 1.77294
thorax -5.0846 -1.76182 3.97126
lowerneck -14.9221 4.3377 9.88347
upperneck 31.2051 6.30864 -8.6082
head 13.6471 2.83099 -4.12402
rclavicle 1.46479e-014 1.51076e-014
rhumerus 0.595076 15.0169 -62.4905
rradius 136.121
rwrist -22.8071
rhand -28.708 7.70413
rfingers 7.12502
rthumb -2.06969 -22.2656
lclavicle 1.46479e-014 1.51076e-014
lhumerus -5.26452 -29.1414 78.7008
lradius 138.491
lwrist -4.38703
lhand -30.0708 2.91444
lfingers 7.12502
lthumb -3.38582 32.8673
rfemur -67.3076 -10.8228 17.4177
rtibia 58.8601
rfoot -14.3249 -19.062
rtoes -3.42443
lfemur -1.02627 -14.1346 -25.809
ltibia 22.1634
lfoot -44.8337 36.2476
ltoes -0.578246
321
root -0.0646971 14.208 -2.47496 20.2486 6.31871 5.83061
lowerback -5.99416 -3.29473 -3.86272
upperback -8.54061 -4.25134 1.87178
thorax -5.1287 -1.85142 4.0341
lowerneck -14.7792 4.64086 10.0719
upperneck 31.3833 6.84667 -8.95603
head 13.7855 3.04758 -4.21812
rclavicle 2.77305e-014 2.62396e-014
rhumerus 0.229835 14.83 -61.8612
rradius 136.085
rwrist -22.8729
rhand -28.6281 7.4338
rfingers 7.12502
rthumb -1.99252 -22.5366
lclavicle 2.77305e-014 2.62396e-014
lhumerus -5.1402 -28.7455 78.7396
lradius 138.43
lwrist -4.58519
lhand -30.0356 2.70071
lfingers 7.12502
lthumb -3.35185 32.6541
rfemur -67.4667 -10.5535 17.73
rtibia 59.8177
rfoot -14.9889 -19.2654
rtoes -2.62865
lfemur -0.314932 -13.7448 -25.8141
ltibia 21.9484
lfoot -44.887 36.2416
ltoes -1.52137
322
root -0.101196 14.1723 -2.38347 20.0412 5.81324 5.73697
lowerback -6.16245 -3.423 -3.76422
upperback -8.68193 -4.41858 1.96725
thorax -5.16935 -1.93571 4.0697
lowerneck -14.6241 4.94237 10.2467
upperneck 31.554 7.39272 -9.3098
head 13.9238 3.26538 -4.31097
rclavicle -5.04711e-014 -4.77083e-015
rhumerus -0.116378 14.6282 -61.1797
rradius 135.992
rwrist -22.9668
rhand -28.558 7.20176
rfingers 7.12502
rthumb -1.92483 -22.7693
lclavicle -5.04711e-014 -4.77083e-015
lhumerus -5.08177 -28.2953 78.7518
lradius 138.402
lwrist -4.73698
lhand -30.03 2.50927
lfingers 7.12502
lthumb -3.34641 32.4627
rfemur -67.5962 -10.3021 18.0712
rtibia 60.8502
rfoot -15.676 -19.2432
rtoes -1.91173
lfemur 0.453379 -13.2166 -25.7751
ltibia 21.7708
lfoot -44.784 36.1562
ltoes -2.73778
323
root -0.13892 14.1352 -2.28831 19.7598 5.29207 5.61684
lowerback -6.30617 -3.5386 -3.61909
upperback -8.80264 -4.57101 2.06013
thorax -5.20648 -2.01587 4.07741
lowerneck -14.4341 5.23999 10.417
upperneck 31.7034 7.94506 -9.67949
head 14.0516 3.48414 -4.40837
rclavicle -1.99033e-014 5.56597e-015
rhumerus -0.441078 14.4175 -60.4574
rradius 135.816
rwrist -23.0902
rhand -28.4723 6.99195
rfingers 7.12502
rthumb -1.84208 -22.9798
lclavicle -1.99033e-014 5.56597e-015
lhumerus -5.11019 -27.7971 78.7347
lradius 138.421
lwrist -4.81349
lhand -30.0389 2.35559
lfingers 7.12502
lthumb -3.35504 32.3089
rfemur -67.6417 -10.0589 18.4388
rtibia 61.8945
rfoot -16.3239 -19.0043
rtoes -1.44514
lfemur 1.29584 -12.5702 -25.6902
ltibia 21.6424
lfoot -44.5595 35.9742
ltoes -4.14858
